<mxfile host="app.diagrams.net" agent="Mozilla/5.0 (Windows NT 10.0; Win64; x64) AppleWebKit/537.36 (KHTML, like Gecko) Chrome/137.0.0.0 Safari/537.36" version="27.1.6">
  <diagram name="Page-1" id="e8uS4mHemfAsoolGt1cE">
    <mxGraphModel dx="1097" dy="555" grid="0" gridSize="10" guides="1" tooltips="1" connect="1" arrows="1" fold="1" page="0" pageScale="1" pageWidth="827" pageHeight="1169" math="0" shadow="0">
      <root>
        <mxCell id="0" />
        <mxCell id="1" parent="0" />
        <mxCell id="z2Nw5AUVz9779FHHhMOY-1" value="Å’uvre" style="swimlane;fontStyle=0;childLayout=stackLayout;horizontal=1;startSize=26;fillColor=none;horizontalStack=0;resizeParent=1;resizeParentMax=0;resizeLast=0;collapsible=1;marginBottom=0;whiteSpace=wrap;html=1;" parent="1" vertex="1">
          <mxGeometry x="274" y="40" width="140" height="208" as="geometry" />
        </mxCell>
        <mxCell id="z2Nw5AUVz9779FHHhMOY-2" value="+ ID : Integer (PK)" style="text;strokeColor=none;fillColor=none;align=left;verticalAlign=top;spacingLeft=4;spacingRight=4;overflow=hidden;rotatable=0;points=[[0,0.5],[1,0.5]];portConstraint=eastwest;whiteSpace=wrap;html=1;" parent="z2Nw5AUVz9779FHHhMOY-1" vertex="1">
          <mxGeometry y="26" width="140" height="26" as="geometry" />
        </mxCell>
        <mxCell id="z2Nw5AUVz9779FHHhMOY-3" value="+ titre : String" style="text;strokeColor=none;fillColor=none;align=left;verticalAlign=top;spacingLeft=4;spacingRight=4;overflow=hidden;rotatable=0;points=[[0,0.5],[1,0.5]];portConstraint=eastwest;whiteSpace=wrap;html=1;" parent="z2Nw5AUVz9779FHHhMOY-1" vertex="1">
          <mxGeometry y="52" width="140" height="26" as="geometry" />
        </mxCell>
        <mxCell id="z2Nw5AUVz9779FHHhMOY-4" value="+ annee : Integer" style="text;strokeColor=none;fillColor=none;align=left;verticalAlign=top;spacingLeft=4;spacingRight=4;overflow=hidden;rotatable=0;points=[[0,0.5],[1,0.5]];portConstraint=eastwest;whiteSpace=wrap;html=1;" parent="z2Nw5AUVz9779FHHhMOY-1" vertex="1">
          <mxGeometry y="78" width="140" height="26" as="geometry" />
        </mxCell>
        <mxCell id="z2Nw5AUVz9779FHHhMOY-5" value="+ duree : Integer" style="text;strokeColor=none;fillColor=none;align=left;verticalAlign=top;spacingLeft=4;spacingRight=4;overflow=hidden;rotatable=0;points=[[0,0.5],[1,0.5]];portConstraint=eastwest;whiteSpace=wrap;html=1;" parent="z2Nw5AUVz9779FHHhMOY-1" vertex="1">
          <mxGeometry y="104" width="140" height="26" as="geometry" />
        </mxCell>
        <mxCell id="z2Nw5AUVz9779FHHhMOY-6" value="+ description : String" style="text;strokeColor=none;fillColor=none;align=left;verticalAlign=top;spacingLeft=4;spacingRight=4;overflow=hidden;rotatable=0;points=[[0,0.5],[1,0.5]];portConstraint=eastwest;whiteSpace=wrap;html=1;" parent="z2Nw5AUVz9779FHHhMOY-1" vertex="1">
          <mxGeometry y="130" width="140" height="26" as="geometry" />
        </mxCell>
        <mxCell id="z2Nw5AUVz9779FHHhMOY-7" value="+ afficheURL : String" style="text;strokeColor=none;fillColor=none;align=left;verticalAlign=top;spacingLeft=4;spacingRight=4;overflow=hidden;rotatable=0;points=[[0,0.5],[1,0.5]];portConstraint=eastwest;whiteSpace=wrap;html=1;" parent="z2Nw5AUVz9779FHHhMOY-1" vertex="1">
          <mxGeometry y="156" width="140" height="26" as="geometry" />
        </mxCell>
        <mxCell id="z2Nw5AUVz9779FHHhMOY-8" value="+ type : String" style="text;strokeColor=none;fillColor=none;align=left;verticalAlign=top;spacingLeft=4;spacingRight=4;overflow=hidden;rotatable=0;points=[[0,0.5],[1,0.5]];portConstraint=eastwest;whiteSpace=wrap;html=1;" parent="z2Nw5AUVz9779FHHhMOY-1" vertex="1">
          <mxGeometry y="182" width="140" height="26" as="geometry" />
        </mxCell>
        <mxCell id="z2Nw5AUVz9779FHHhMOY-9" value="Personne" style="swimlane;fontStyle=0;childLayout=stackLayout;horizontal=1;startSize=26;fillColor=none;horizontalStack=0;resizeParent=1;resizeParentMax=0;resizeLast=0;collapsible=1;marginBottom=0;whiteSpace=wrap;html=1;" parent="1" vertex="1">
          <mxGeometry x="20" y="92" width="140" height="104" as="geometry" />
        </mxCell>
        <mxCell id="z2Nw5AUVz9779FHHhMOY-10" value="+ ID : Integer (PK)" style="text;strokeColor=none;fillColor=none;align=left;verticalAlign=top;spacingLeft=4;spacingRight=4;overflow=hidden;rotatable=0;points=[[0,0.5],[1,0.5]];portConstraint=eastwest;whiteSpace=wrap;html=1;" parent="z2Nw5AUVz9779FHHhMOY-9" vertex="1">
          <mxGeometry y="26" width="140" height="26" as="geometry" />
        </mxCell>
        <mxCell id="z2Nw5AUVz9779FHHhMOY-11" value="+ nom : String" style="text;strokeColor=none;fillColor=none;align=left;verticalAlign=top;spacingLeft=4;spacingRight=4;overflow=hidden;rotatable=0;points=[[0,0.5],[1,0.5]];portConstraint=eastwest;whiteSpace=wrap;html=1;" parent="z2Nw5AUVz9779FHHhMOY-9" vertex="1">
          <mxGeometry y="52" width="140" height="26" as="geometry" />
        </mxCell>
        <mxCell id="z2Nw5AUVz9779FHHhMOY-12" value="+ prenom : String" style="text;strokeColor=none;fillColor=none;align=left;verticalAlign=top;spacingLeft=4;spacingRight=4;overflow=hidden;rotatable=0;points=[[0,0.5],[1,0.5]];portConstraint=eastwest;whiteSpace=wrap;html=1;" parent="z2Nw5AUVz9779FHHhMOY-9" vertex="1">
          <mxGeometry y="78" width="140" height="26" as="geometry" />
        </mxCell>
        <mxCell id="z2Nw5AUVz9779FHHhMOY-13" value="Genre" style="swimlane;fontStyle=0;childLayout=stackLayout;horizontal=1;startSize=26;fillColor=none;horizontalStack=0;resizeParent=1;resizeParentMax=0;resizeLast=0;collapsible=1;marginBottom=0;whiteSpace=wrap;html=1;" parent="1" vertex="1">
          <mxGeometry x="120" y="290" width="140" height="78" as="geometry" />
        </mxCell>
        <mxCell id="z2Nw5AUVz9779FHHhMOY-14" value="+ ID : Integer (PK)" style="text;strokeColor=none;fillColor=none;align=left;verticalAlign=top;spacingLeft=4;spacingRight=4;overflow=hidden;rotatable=0;points=[[0,0.5],[1,0.5]];portConstraint=eastwest;whiteSpace=wrap;html=1;" parent="z2Nw5AUVz9779FHHhMOY-13" vertex="1">
          <mxGeometry y="26" width="140" height="26" as="geometry" />
        </mxCell>
        <mxCell id="z2Nw5AUVz9779FHHhMOY-15" value="+ nom : String" style="text;strokeColor=none;fillColor=none;align=left;verticalAlign=top;spacingLeft=4;spacingRight=4;overflow=hidden;rotatable=0;points=[[0,0.5],[1,0.5]];portConstraint=eastwest;whiteSpace=wrap;html=1;" parent="z2Nw5AUVz9779FHHhMOY-13" vertex="1">
          <mxGeometry y="52" width="140" height="26" as="geometry" />
        </mxCell>
        <mxCell id="z2Nw5AUVz9779FHHhMOY-17" value="Langue" style="swimlane;fontStyle=0;childLayout=stackLayout;horizontal=1;startSize=26;fillColor=none;horizontalStack=0;resizeParent=1;resizeParentMax=0;resizeLast=0;collapsible=1;marginBottom=0;whiteSpace=wrap;html=1;" parent="1" vertex="1">
          <mxGeometry x="430" y="290" width="140" height="78" as="geometry" />
        </mxCell>
        <mxCell id="z2Nw5AUVz9779FHHhMOY-18" value="+ ID : Integer (PK)" style="text;strokeColor=none;fillColor=none;align=left;verticalAlign=top;spacingLeft=4;spacingRight=4;overflow=hidden;rotatable=0;points=[[0,0.5],[1,0.5]];portConstraint=eastwest;whiteSpace=wrap;html=1;" parent="z2Nw5AUVz9779FHHhMOY-17" vertex="1">
          <mxGeometry y="26" width="140" height="26" as="geometry" />
        </mxCell>
        <mxCell id="z2Nw5AUVz9779FHHhMOY-19" value="+ nom : String" style="text;strokeColor=none;fillColor=none;align=left;verticalAlign=top;spacingLeft=4;spacingRight=4;overflow=hidden;rotatable=0;points=[[0,0.5],[1,0.5]];portConstraint=eastwest;whiteSpace=wrap;html=1;" parent="z2Nw5AUVz9779FHHhMOY-17" vertex="1">
          <mxGeometry y="52" width="140" height="26" as="geometry" />
        </mxCell>
        <mxCell id="z2Nw5AUVz9779FHHhMOY-20" value="Pays" style="swimlane;fontStyle=0;childLayout=stackLayout;horizontal=1;startSize=26;fillColor=none;horizontalStack=0;resizeParent=1;resizeParentMax=0;resizeLast=0;collapsible=1;marginBottom=0;whiteSpace=wrap;html=1;" parent="1" vertex="1">
          <mxGeometry x="274" y="290" width="140" height="104" as="geometry" />
        </mxCell>
        <mxCell id="z2Nw5AUVz9779FHHhMOY-21" value="+ ID : Integer (PK)" style="text;strokeColor=none;fillColor=none;align=left;verticalAlign=top;spacingLeft=4;spacingRight=4;overflow=hidden;rotatable=0;points=[[0,0.5],[1,0.5]];portConstraint=eastwest;whiteSpace=wrap;html=1;" parent="z2Nw5AUVz9779FHHhMOY-20" vertex="1">
          <mxGeometry y="26" width="140" height="26" as="geometry" />
        </mxCell>
        <mxCell id="z2Nw5AUVz9779FHHhMOY-22" value="+ nom : String" style="text;strokeColor=none;fillColor=none;align=left;verticalAlign=top;spacingLeft=4;spacingRight=4;overflow=hidden;rotatable=0;points=[[0,0.5],[1,0.5]];portConstraint=eastwest;whiteSpace=wrap;html=1;" parent="z2Nw5AUVz9779FHHhMOY-20" vertex="1">
          <mxGeometry y="52" width="140" height="26" as="geometry" />
        </mxCell>
        <mxCell id="z2Nw5AUVz9779FHHhMOY-23" value="+ codeISO : String" style="text;strokeColor=none;fillColor=none;align=left;verticalAlign=top;spacingLeft=4;spacingRight=4;overflow=hidden;rotatable=0;points=[[0,0.5],[1,0.5]];portConstraint=eastwest;whiteSpace=wrap;html=1;" parent="z2Nw5AUVz9779FHHhMOY-20" vertex="1">
          <mxGeometry y="78" width="140" height="26" as="geometry" />
        </mxCell>
        <mxCell id="z2Nw5AUVz9779FHHhMOY-24" value="Utilisateur" style="swimlane;fontStyle=0;childLayout=stackLayout;horizontal=1;startSize=26;fillColor=none;horizontalStack=0;resizeParent=1;resizeParentMax=0;resizeLast=0;collapsible=1;marginBottom=0;whiteSpace=wrap;html=1;" parent="1" vertex="1">
          <mxGeometry x="928" y="107" width="140" height="130" as="geometry" />
        </mxCell>
        <mxCell id="z2Nw5AUVz9779FHHhMOY-25" value="+ ID : Integer (PK)" style="text;strokeColor=none;fillColor=none;align=left;verticalAlign=top;spacingLeft=4;spacingRight=4;overflow=hidden;rotatable=0;points=[[0,0.5],[1,0.5]];portConstraint=eastwest;whiteSpace=wrap;html=1;" parent="z2Nw5AUVz9779FHHhMOY-24" vertex="1">
          <mxGeometry y="26" width="140" height="26" as="geometry" />
        </mxCell>
        <mxCell id="z2Nw5AUVz9779FHHhMOY-26" value="+ identifiant : String" style="text;strokeColor=none;fillColor=none;align=left;verticalAlign=top;spacingLeft=4;spacingRight=4;overflow=hidden;rotatable=0;points=[[0,0.5],[1,0.5]];portConstraint=eastwest;whiteSpace=wrap;html=1;" parent="z2Nw5AUVz9779FHHhMOY-24" vertex="1">
          <mxGeometry y="52" width="140" height="26" as="geometry" />
        </mxCell>
        <mxCell id="z2Nw5AUVz9779FHHhMOY-27" value="+ motDePasse : Integer" style="text;strokeColor=none;fillColor=none;align=left;verticalAlign=top;spacingLeft=4;spacingRight=4;overflow=hidden;rotatable=0;points=[[0,0.5],[1,0.5]];portConstraint=eastwest;whiteSpace=wrap;html=1;" parent="z2Nw5AUVz9779FHHhMOY-24" vertex="1">
          <mxGeometry y="78" width="140" height="26" as="geometry" />
        </mxCell>
        <mxCell id="z2Nw5AUVz9779FHHhMOY-28" value="+ email : Integer" style="text;strokeColor=none;fillColor=none;align=left;verticalAlign=top;spacingLeft=4;spacingRight=4;overflow=hidden;rotatable=0;points=[[0,0.5],[1,0.5]];portConstraint=eastwest;whiteSpace=wrap;html=1;" parent="z2Nw5AUVz9779FHHhMOY-24" vertex="1">
          <mxGeometry y="104" width="140" height="26" as="geometry" />
        </mxCell>
        <mxCell id="z2Nw5AUVz9779FHHhMOY-32" value="Commentaire" style="swimlane;fontStyle=0;childLayout=stackLayout;horizontal=1;startSize=26;fillColor=none;horizontalStack=0;resizeParent=1;resizeParentMax=0;resizeLast=0;collapsible=1;marginBottom=0;whiteSpace=wrap;html=1;" parent="1" vertex="1">
          <mxGeometry x="660" y="40" width="140" height="130" as="geometry" />
        </mxCell>
        <mxCell id="z2Nw5AUVz9779FHHhMOY-33" value="+ ID : Integer (PK)" style="text;strokeColor=none;fillColor=none;align=left;verticalAlign=top;spacingLeft=4;spacingRight=4;overflow=hidden;rotatable=0;points=[[0,0.5],[1,0.5]];portConstraint=eastwest;whiteSpace=wrap;html=1;" parent="z2Nw5AUVz9779FHHhMOY-32" vertex="1">
          <mxGeometry y="26" width="140" height="26" as="geometry" />
        </mxCell>
        <mxCell id="z2Nw5AUVz9779FHHhMOY-34" value="+ note : Float" style="text;strokeColor=none;fillColor=none;align=left;verticalAlign=top;spacingLeft=4;spacingRight=4;overflow=hidden;rotatable=0;points=[[0,0.5],[1,0.5]];portConstraint=eastwest;whiteSpace=wrap;html=1;" parent="z2Nw5AUVz9779FHHhMOY-32" vertex="1">
          <mxGeometry y="52" width="140" height="26" as="geometry" />
        </mxCell>
        <mxCell id="z2Nw5AUVz9779FHHhMOY-35" value="+ texte : String" style="text;strokeColor=none;fillColor=none;align=left;verticalAlign=top;spacingLeft=4;spacingRight=4;overflow=hidden;rotatable=0;points=[[0,0.5],[1,0.5]];portConstraint=eastwest;whiteSpace=wrap;html=1;" parent="z2Nw5AUVz9779FHHhMOY-32" vertex="1">
          <mxGeometry y="78" width="140" height="26" as="geometry" />
        </mxCell>
        <mxCell id="z2Nw5AUVz9779FHHhMOY-36" value="+ date : Date" style="text;strokeColor=none;fillColor=none;align=left;verticalAlign=top;spacingLeft=4;spacingRight=4;overflow=hidden;rotatable=0;points=[[0,0.5],[1,0.5]];portConstraint=eastwest;whiteSpace=wrap;html=1;" parent="z2Nw5AUVz9779FHHhMOY-32" vertex="1">
          <mxGeometry y="104" width="140" height="26" as="geometry" />
        </mxCell>
        <mxCell id="z2Nw5AUVz9779FHHhMOY-37" value="Favori" style="swimlane;fontStyle=0;childLayout=stackLayout;horizontal=1;startSize=26;fillColor=none;horizontalStack=0;resizeParent=1;resizeParentMax=0;resizeLast=0;collapsible=1;marginBottom=0;whiteSpace=wrap;html=1;" parent="1" vertex="1">
          <mxGeometry x="660" y="202" width="140" height="78" as="geometry" />
        </mxCell>
        <mxCell id="z2Nw5AUVz9779FHHhMOY-38" value="+ ID : Integer (PK)" style="text;strokeColor=none;fillColor=none;align=left;verticalAlign=top;spacingLeft=4;spacingRight=4;overflow=hidden;rotatable=0;points=[[0,0.5],[1,0.5]];portConstraint=eastwest;whiteSpace=wrap;html=1;" parent="z2Nw5AUVz9779FHHhMOY-37" vertex="1">
          <mxGeometry y="26" width="140" height="26" as="geometry" />
        </mxCell>
        <mxCell id="z2Nw5AUVz9779FHHhMOY-39" value="+ dateAjout : Date" style="text;strokeColor=none;fillColor=none;align=left;verticalAlign=top;spacingLeft=4;spacingRight=4;overflow=hidden;rotatable=0;points=[[0,0.5],[1,0.5]];portConstraint=eastwest;whiteSpace=wrap;html=1;" parent="z2Nw5AUVz9779FHHhMOY-37" vertex="1">
          <mxGeometry y="52" width="140" height="26" as="geometry" />
        </mxCell>
        <mxCell id="z2Nw5AUVz9779FHHhMOY-41" value="1..*" style="text;html=1;align=center;verticalAlign=middle;resizable=0;points=[];autosize=1;strokeColor=none;fillColor=none;" parent="1" vertex="1">
          <mxGeometry x="160" y="268" width="40" height="30" as="geometry" />
        </mxCell>
        <mxCell id="z2Nw5AUVz9779FHHhMOY-43" value="1..1" style="text;html=1;align=center;verticalAlign=middle;resizable=0;points=[];autosize=1;strokeColor=none;fillColor=none;" parent="1" vertex="1">
          <mxGeometry x="341" y="270" width="38" height="26" as="geometry" />
        </mxCell>
        <mxCell id="z2Nw5AUVz9779FHHhMOY-45" value="1..*" style="text;html=1;align=center;verticalAlign=middle;resizable=0;points=[];autosize=1;strokeColor=none;fillColor=none;" parent="1" vertex="1">
          <mxGeometry x="490" y="268" width="40" height="30" as="geometry" />
        </mxCell>
        <mxCell id="z2Nw5AUVz9779FHHhMOY-46" value="" style="endArrow=none;html=1;rounded=0;entryX=0.849;entryY=0.998;entryDx=0;entryDy=0;entryPerimeter=0;exitX=0.5;exitY=0;exitDx=0;exitDy=0;" parent="1" source="z2Nw5AUVz9779FHHhMOY-17" target="z2Nw5AUVz9779FHHhMOY-8" edge="1">
          <mxGeometry width="50" height="50" relative="1" as="geometry">
            <mxPoint x="550" y="300" as="sourcePoint" />
            <mxPoint x="600" y="250" as="targetPoint" />
          </mxGeometry>
        </mxCell>
        <mxCell id="z2Nw5AUVz9779FHHhMOY-47" value="0..*" style="text;html=1;align=center;verticalAlign=middle;resizable=0;points=[];autosize=1;strokeColor=none;fillColor=none;" parent="1" vertex="1">
          <mxGeometry x="404" y="236" width="40" height="30" as="geometry" />
        </mxCell>
        <mxCell id="z2Nw5AUVz9779FHHhMOY-48" value="" style="endArrow=none;html=1;rounded=0;exitX=0.5;exitY=0;exitDx=0;exitDy=0;entryX=0.501;entryY=0.998;entryDx=0;entryDy=0;entryPerimeter=0;" parent="1" source="z2Nw5AUVz9779FHHhMOY-20" target="z2Nw5AUVz9779FHHhMOY-8" edge="1">
          <mxGeometry width="50" height="50" relative="1" as="geometry">
            <mxPoint x="550" y="300" as="sourcePoint" />
            <mxPoint x="344" y="250" as="targetPoint" />
          </mxGeometry>
        </mxCell>
        <mxCell id="z2Nw5AUVz9779FHHhMOY-49" value="0..*" style="text;html=1;align=center;verticalAlign=middle;resizable=0;points=[];autosize=1;strokeColor=none;fillColor=none;" parent="1" vertex="1">
          <mxGeometry x="340" y="243" width="40" height="30" as="geometry" />
        </mxCell>
        <mxCell id="z2Nw5AUVz9779FHHhMOY-51" value="" style="endArrow=none;html=1;rounded=0;entryX=0.12;entryY=1.005;entryDx=0;entryDy=0;entryPerimeter=0;exitX=0.5;exitY=0;exitDx=0;exitDy=0;" parent="1" source="z2Nw5AUVz9779FHHhMOY-13" target="z2Nw5AUVz9779FHHhMOY-8" edge="1">
          <mxGeometry width="50" height="50" relative="1" as="geometry">
            <mxPoint x="437" y="292" as="sourcePoint" />
            <mxPoint x="330" y="250" as="targetPoint" />
          </mxGeometry>
        </mxCell>
        <mxCell id="z2Nw5AUVz9779FHHhMOY-52" value="0..*" style="text;html=1;align=center;verticalAlign=middle;resizable=0;points=[];autosize=1;strokeColor=none;fillColor=none;" parent="1" vertex="1">
          <mxGeometry x="243" y="235" width="40" height="30" as="geometry" />
        </mxCell>
        <mxCell id="z2Nw5AUVz9779FHHhMOY-53" value="" style="endArrow=none;html=1;rounded=0;exitX=1;exitY=0.5;exitDx=0;exitDy=0;entryX=0;entryY=0.5;entryDx=0;entryDy=0;" parent="1" source="z2Nw5AUVz9779FHHhMOY-10" target="z2Nw5AUVz9779FHHhMOY-4" edge="1">
          <mxGeometry width="50" height="50" relative="1" as="geometry">
            <mxPoint x="230" y="180" as="sourcePoint" />
            <mxPoint x="280" y="130" as="targetPoint" />
          </mxGeometry>
        </mxCell>
        <mxCell id="z2Nw5AUVz9779FHHhMOY-54" value="1..*" style="text;html=1;align=center;verticalAlign=middle;resizable=0;points=[];autosize=1;strokeColor=none;fillColor=none;" parent="1" vertex="1">
          <mxGeometry x="150" y="108" width="40" height="30" as="geometry" />
        </mxCell>
        <mxCell id="z2Nw5AUVz9779FHHhMOY-55" value="0..*" style="text;html=1;align=center;verticalAlign=middle;resizable=0;points=[];autosize=1;strokeColor=none;fillColor=none;" parent="1" vertex="1">
          <mxGeometry x="240" y="108" width="40" height="30" as="geometry" />
        </mxCell>
        <mxCell id="z2Nw5AUVz9779FHHhMOY-56" value="Acteur" style="text;html=1;align=center;verticalAlign=middle;resizable=0;points=[];autosize=1;strokeColor=none;fillColor=none;" parent="1" vertex="1">
          <mxGeometry x="186" y="108" width="60" height="30" as="geometry" />
        </mxCell>
        <mxCell id="z2Nw5AUVz9779FHHhMOY-57" value="1..*" style="text;html=1;align=center;verticalAlign=middle;resizable=0;points=[];autosize=1;strokeColor=none;fillColor=none;" parent="1" vertex="1">
          <mxGeometry x="150" y="129" width="40" height="30" as="geometry" />
        </mxCell>
        <mxCell id="z2Nw5AUVz9779FHHhMOY-58" value="0..*" style="text;html=1;align=center;verticalAlign=middle;resizable=0;points=[];autosize=1;strokeColor=none;fillColor=none;" parent="1" vertex="1">
          <mxGeometry x="240" y="129" width="40" height="30" as="geometry" />
        </mxCell>
        <mxCell id="z2Nw5AUVz9779FHHhMOY-59" value="ScÃ©nariste" style="text;html=1;align=center;verticalAlign=middle;resizable=0;points=[];autosize=1;strokeColor=none;fillColor=none;" parent="1" vertex="1">
          <mxGeometry x="175" y="129" width="80" height="30" as="geometry" />
        </mxCell>
        <mxCell id="z2Nw5AUVz9779FHHhMOY-60" value="1..*" style="text;html=1;align=center;verticalAlign=middle;resizable=0;points=[];autosize=1;strokeColor=none;fillColor=none;" parent="1" vertex="1">
          <mxGeometry x="150" y="150" width="40" height="30" as="geometry" />
        </mxCell>
        <mxCell id="z2Nw5AUVz9779FHHhMOY-61" value="0..*" style="text;html=1;align=center;verticalAlign=middle;resizable=0;points=[];autosize=1;strokeColor=none;fillColor=none;" parent="1" vertex="1">
          <mxGeometry x="240" y="150" width="40" height="30" as="geometry" />
        </mxCell>
        <mxCell id="z2Nw5AUVz9779FHHhMOY-62" value="RÃ©alisateur" style="text;html=1;align=center;verticalAlign=middle;resizable=0;points=[];autosize=1;strokeColor=none;fillColor=none;" parent="1" vertex="1">
          <mxGeometry x="176" y="150" width="80" height="30" as="geometry" />
        </mxCell>
        <mxCell id="z2Nw5AUVz9779FHHhMOY-63" value="" style="endArrow=none;html=1;rounded=0;exitX=0.247;exitY=0.091;exitDx=0;exitDy=0;exitPerimeter=0;entryX=0.848;entryY=0.088;entryDx=0;entryDy=0;entryPerimeter=0;" parent="1" source="z2Nw5AUVz9779FHHhMOY-60" target="z2Nw5AUVz9779FHHhMOY-61" edge="1">
          <mxGeometry width="50" height="50" relative="1" as="geometry">
            <mxPoint x="224" y="200" as="sourcePoint" />
            <mxPoint x="270" y="153" as="targetPoint" />
          </mxGeometry>
        </mxCell>
        <mxCell id="z2Nw5AUVz9779FHHhMOY-64" value="" style="endArrow=none;html=1;rounded=0;exitX=0.239;exitY=0.923;exitDx=0;exitDy=0;exitPerimeter=0;entryX=0.843;entryY=0.918;entryDx=0;entryDy=0;entryPerimeter=0;" parent="1" edge="1">
          <mxGeometry width="50" height="50" relative="1" as="geometry">
            <mxPoint x="159.56" y="174.69" as="sourcePoint" />
            <mxPoint x="273.72" y="174.54000000000002" as="targetPoint" />
          </mxGeometry>
        </mxCell>
        <mxCell id="z2Nw5AUVz9779FHHhMOY-65" value="" style="endArrow=diamondThin;endFill=0;endSize=24;html=1;rounded=0;entryX=1;entryY=0.5;entryDx=0;entryDy=0;exitX=0;exitY=0.5;exitDx=0;exitDy=0;" parent="1" source="z2Nw5AUVz9779FHHhMOY-34" target="z2Nw5AUVz9779FHHhMOY-3" edge="1">
          <mxGeometry width="160" relative="1" as="geometry">
            <mxPoint x="490" y="150" as="sourcePoint" />
            <mxPoint x="650" y="150" as="targetPoint" />
          </mxGeometry>
        </mxCell>
        <mxCell id="z2Nw5AUVz9779FHHhMOY-66" value="0..*" style="text;html=1;align=center;verticalAlign=middle;resizable=0;points=[];autosize=1;strokeColor=none;fillColor=none;" parent="1" vertex="1">
          <mxGeometry x="620" y="82" width="40" height="30" as="geometry" />
        </mxCell>
        <mxCell id="z2Nw5AUVz9779FHHhMOY-67" value="1..1" style="text;html=1;align=center;verticalAlign=middle;resizable=0;points=[];autosize=1;strokeColor=none;fillColor=none;" parent="1" vertex="1">
          <mxGeometry x="428" y="82" width="40" height="30" as="geometry" />
        </mxCell>
        <mxCell id="z2Nw5AUVz9779FHHhMOY-68" value="" style="endArrow=diamondThin;endFill=0;endSize=24;html=1;rounded=0;entryX=1;entryY=0.5;entryDx=0;entryDy=0;exitX=0.99;exitY=1.011;exitDx=0;exitDy=0;exitPerimeter=0;" parent="1" source="z2Nw5AUVz9779FHHhMOY-69" edge="1">
          <mxGeometry width="160" relative="1" as="geometry">
            <mxPoint x="660" y="180" as="sourcePoint" />
            <mxPoint x="414" y="180" as="targetPoint" />
          </mxGeometry>
        </mxCell>
        <mxCell id="z2Nw5AUVz9779FHHhMOY-69" value="0..*" style="text;html=1;align=center;verticalAlign=middle;resizable=0;points=[];autosize=1;strokeColor=none;fillColor=none;" parent="1" vertex="1">
          <mxGeometry x="620" y="218" width="40" height="30" as="geometry" />
        </mxCell>
        <mxCell id="z2Nw5AUVz9779FHHhMOY-70" value="1..1" style="text;html=1;align=center;verticalAlign=middle;resizable=0;points=[];autosize=1;strokeColor=none;fillColor=none;" parent="1" vertex="1">
          <mxGeometry x="428" y="157" width="40" height="30" as="geometry" />
        </mxCell>
        <mxCell id="z2Nw5AUVz9779FHHhMOY-72" value="" style="endArrow=diamondThin;endFill=0;endSize=24;html=1;rounded=0;entryX=0;entryY=0.813;entryDx=0;entryDy=0;exitX=1;exitY=0.5;exitDx=0;exitDy=0;entryPerimeter=0;" parent="1" source="z2Nw5AUVz9779FHHhMOY-38" target="z2Nw5AUVz9779FHHhMOY-27" edge="1">
          <mxGeometry width="160" relative="1" as="geometry">
            <mxPoint x="966" y="248" as="sourcePoint" />
            <mxPoint x="720" y="180" as="targetPoint" />
          </mxGeometry>
        </mxCell>
        <mxCell id="z2Nw5AUVz9779FHHhMOY-73" value="" style="endArrow=diamondThin;endFill=0;endSize=24;html=1;rounded=0;entryX=-0.001;entryY=0.158;entryDx=0;entryDy=0;exitX=1;exitY=0.5;exitDx=0;exitDy=0;entryPerimeter=0;" parent="1" target="z2Nw5AUVz9779FHHhMOY-26" edge="1">
          <mxGeometry width="160" relative="1" as="geometry">
            <mxPoint x="800" y="114.5" as="sourcePoint" />
            <mxPoint x="928" y="79.5" as="targetPoint" />
          </mxGeometry>
        </mxCell>
        <mxCell id="z2Nw5AUVz9779FHHhMOY-74" value="0..*" style="text;html=1;align=center;verticalAlign=middle;resizable=0;points=[];autosize=1;strokeColor=none;fillColor=none;" parent="1" vertex="1">
          <mxGeometry x="794" y="95" width="40" height="30" as="geometry" />
        </mxCell>
        <mxCell id="z2Nw5AUVz9779FHHhMOY-75" value="0..*" style="text;html=1;align=center;verticalAlign=middle;resizable=0;points=[];autosize=1;strokeColor=none;fillColor=none;" parent="1" vertex="1">
          <mxGeometry x="793" y="214" width="40" height="30" as="geometry" />
        </mxCell>
        <mxCell id="z2Nw5AUVz9779FHHhMOY-76" value="1..1" style="text;html=1;align=center;verticalAlign=middle;resizable=0;points=[];autosize=1;strokeColor=none;fillColor=none;" parent="1" vertex="1">
          <mxGeometry x="894" y="127" width="40" height="30" as="geometry" />
        </mxCell>
        <mxCell id="z2Nw5AUVz9779FHHhMOY-77" value="1..1" style="text;html=1;align=center;verticalAlign=middle;resizable=0;points=[];autosize=1;strokeColor=none;fillColor=none;" parent="1" vertex="1">
          <mxGeometry x="888" y="214" width="40" height="30" as="geometry" />
        </mxCell>
      </root>
    </mxGraphModel>
  </diagram>
</mxfile>
